<svg viewBox="0 0 64 64" xmlns="http://www.w3.org/2000/svg" aria-label="Blayake">
  <rect width="64" height="64" rx="14" fill="#ffffff"/>
  <path fill="#050505" d="M17 14 h15 c5.6 0 9.4 3.1 9.4 8.2 c0 3.1-1.6 5.4-4.2 6.6 c3.4 1 5.6 3.6 5.6 7.4 c0 5.4-4 8.8-10.2 8.8 h-15.6 z M22 21.4 v6.8 h9.2 c2.7 0 4.4-1.3 4.4-3.4 c0-2.1-1.7-3.4-4.4-3.4 z M22 35.4 v8.2 h10.2 c3 0 4.8-1.5 4.8-4.1 c0-2.6-1.8-4.1-4.8-4.1 z"/>
  <rect x="17" y="31.4" width="24.6" height="0.7" fill="#ffffff" opacity="0.55"/>
  <circle cx="50" cy="14" r="3" fill="#050505"/>
</svg>
